<?xml version="1.0" encoding="UTF-8"?>
<svg width="100pt" height="100pt" version="1.1" viewBox="0 0 100 100" xmlns="http://www.w3.org/2000/svg">
 <g fill="#167222">
  <path d="m66 19.742c0 6.7617-5.4805 12.242-12.242 12.242-6.7617 0-12.242-5.4805-12.242-12.242 0-6.7617 5.4805-12.242 12.242-12.242 6.7617 0 12.242 5.4805 12.242 12.242"/>
  <path d="m30.203 35.551c0 5.5039-4.4609 9.9648-9.9648 9.9648-5.5039 0-9.9648-4.4609-9.9648-9.9648 0-5.5039 4.4609-9.9648 9.9648-9.9648 5.5039 0 9.9648 4.4609 9.9648 9.9648"/>
  <path d="m47.633 92.602c-6.2148-3.7461-23.203-15.152-31.438-32.301-3.3633-7.0039-0.86328-9.1562 2.3867-12.902 2.2656 0.65234 4.7695 0.50781 7.0586-0.59375 2.293-1.1016 3.9688-2.9648 4.8789-5.1367 1.0586-0.042969 2.0391-0.10156 2.9609-0.10156-0.13672 1.0469-0.20312 2.1914-0.20312 3.4453 0 10.254 2.3867 21.277 7.0938 32.762 2.3945 5.8477 5.0391 10.922 7.2695 14.797-0.003906 0.007813-0.007813 0.019532-0.007813 0.03125z"/>
  <path d="m36.117 45.008c0-9.543 3.9102-10.602 9.5039-13.023 2.1641 1.9258 5.0117 3.0977 8.1367 3.0977s5.9727-1.1719 8.1367-3.0977c5.5938 2.4219 9.5039 3.4805 9.5039 13.023 0 23.371-12.746 45.039-17.641 52.492-4.8906-7.4531-17.641-29.121-17.641-52.492z"/>
  <path d="m91.32 60.301c-8.2344 17.148-25.223 28.555-31.438 32.301 0-0.011718-0.003906-0.023437-0.007812-0.039062 2.2305-3.875 4.875-8.9492 7.2695-14.797 4.707-11.488 7.0938-22.512 7.0938-32.762 0-1.2539-0.070312-2.3945-0.20312-3.4453 0.92188 0 1.8984 0.058594 2.9609 0.10156 0.90625 2.1758 2.5859 4.0391 4.8789 5.1367 2.293 1.1016 4.793 1.2422 7.0586 0.59375 3.2539 3.7539 5.75 5.9102 2.3867 12.91z"/>
  <path d="m97.246 35.551c0 5.5039-4.4609 9.9648-9.9648 9.9648s-9.9648-4.4609-9.9648-9.9648c0-5.5039 4.4609-9.9648 9.9648-9.9648s9.9648 4.4609 9.9648 9.9648"/>
 </g>
</svg>
