<?xml version="1.0" encoding="UTF-8"?>
<svg width="100pt" height="100pt" version="1.1" viewBox="0 0 100 100" xmlns="http://www.w3.org/2000/svg">
 <path d="m86.398 21.801h-73.297c-4.6016 0-8.3008 3.6992-8.3008 8.3008v39.301c0 4.6016 3.6992 8.3008 8.3008 8.3008h73.398c4.6016 0 8.3008-3.6992 8.3008-8.3008v-39.301c0-4.6016-3.8008-8.3008-8.4023-8.3008zm-40.699 42.598h-31.801c-0.19922 0 0.69922-4.1992 0.89844-4.6016 0.80078-1.6992 2.1992-2.3984 3.6992-2.8984 1.1016-0.30078 3.1992-0.80078 5.1016-1.3984 1.5-0.5 2.8984-1.1016 3.3008-1.6992 0.10156-0.19922 0.30078-0.39844 0.39844-0.69922-0.30078-0.30078-0.69922-0.60156-0.89844-0.69922-1.6016-1.1992-2.3984-3.3008-2.8008-5.1992-0.39844-1.8984-0.69922-3.8008-0.69922-5.6992 0-1.6016 0.39844-3.3008 1.6992-4.3984 1.5-1.3008 3.5-1.8008 5.3008-1.8008h0.10156c1.8008 0 3.8008 0.5 5.3008 1.8008 0.89844 0.80078 1.5 2 1.6016 3.3008 0.19922 2.3008-0.10156 4.6992-0.60156 6.8984-0.39844 1.8984-1.1992 4-2.8008 5.1992-0.19922 0.19922-0.69922 0.39844-0.89844 0.69922 0.10156 0.19922 0.19922 0.5 0.39844 0.69922 0.39844 0.60156 1.8008 1.1992 3.3008 1.6992 1.8984 0.60156 4 1.1016 5.1016 1.3984 1.5 0.39844 2.8008 1.1016 3.6992 2.8984-0.20312 0.30078 0.69922 4.5 0.59766 4.5zm40-3.1992h-30c-0.80078 0-1.3984-0.60156-1.3984-1.3984 0-0.80078 0.60156-1.3984 1.3984-1.3984h30c0.80078 0 1.3984 0.60156 1.3984 1.3984 0.003906 0.80078-0.59766 1.3984-1.3984 1.3984zm0-10h-30c-0.80078 0-1.3984-0.60156-1.3984-1.3984 0-0.80078 0.60156-1.3984 1.3984-1.3984h30c0.80078 0 1.3984 0.60156 1.3984 1.3984 0.003906 0.80078-0.59766 1.3984-1.3984 1.3984zm0-10.098h-30c-0.80078 0-1.3984-0.60156-1.3984-1.3984 0-0.80078 0.60156-1.3984 1.3984-1.3984h30c0.80078 0 1.3984 0.60156 1.3984 1.3984 0.003906 0.79688-0.59766 1.3984-1.3984 1.3984z" fill="#167222"/>
</svg>
