<?xml version="1.0" encoding="UTF-8"?>
<svg width="100pt" height="100pt" version="1.1" viewBox="0 0 100 100" xmlns="http://www.w3.org/2000/svg">
 <g fill="#9b9b9b">
  <path d="m75.27 31.719h-50.539c-0.85938-0.003906-1.6797 0.35938-2.25 0.99609-0.57422 0.64062-0.84766 1.4922-0.75 2.3438l5 43.66c0.74609 6.5703 6.3086 11.531 12.918 11.531h21.531c6.7031 0 12.305-5.0977 12.941-11.77l4.1406-43.48c0.078125-0.84375-0.20312-1.6797-0.77344-2.3047-0.57422-0.625-1.3828-0.98047-2.2266-0.97656z"/>
  <path d="m63.301 16.75c0-1.8555-0.73828-3.6367-2.0508-4.9492s-3.0938-2.0508-4.9492-2.0508h-12.602c-3.8633 0-7 3.1328-7 7v2.6406h-22.277v6h71.156v-6h-22.277zm-6 2.6406h-14.602v-2.6406c0-0.55078 0.44922-1 1-1h12.602c0.26562 0 0.51953 0.10547 0.70703 0.29297s0.29297 0.44141 0.29297 0.70703z"/>
 </g>
</svg>
