<?xml version="1.0" encoding="UTF-8"?>
<svg width="100pt" height="100pt" version="1.1" viewBox="0 0 100 100" xmlns="http://www.w3.org/2000/svg">
 <path d="m77.141 16.07h-8.0781l-4.9102-9.8203c-1.1406-2.3008-3.5-3.7617-6.0703-3.75h-16.16c-2.5703-0.011719-4.9297 1.4492-6.0703 3.75l-4.9102 9.8203h-8.0781c-5.6211 0-10.18 4.5586-10.18 10.18v3.3906c0.019531 4.3008 2.7305 8.1211 6.7812 9.5586l-0.003906 48.121c0 5.6211 4.5586 10.18 10.18 10.18h40.719c5.6211 0 10.18-4.5586 10.18-10.18v-48.121c4.0508-1.4414 6.7617-5.2617 6.7812-9.5586v-3.3906c0-5.6211-4.5586-10.18-10.18-10.18zm-35.219-6.7812h16.16l3.3906 6.7812h-22.941zm-2.1016 71.25c0 1.8711-1.5195 3.3906-3.3906 3.3906-1.8789 0-3.3906-1.5195-3.3906-3.3906v-30.539c0-1.8711 1.5117-3.3906 3.3906-3.3906 1.8711 0 3.3906 1.5195 3.3906 3.3906zm13.57 0c0 1.8711-1.5195 3.3906-3.3906 3.3906s-3.3906-1.5195-3.3906-3.3906v-30.539c0-1.8711 1.5195-3.3906 3.3906-3.3906s3.3906 1.5195 3.3906 3.3906zm13.57 0c0 1.8711-1.5117 3.3906-3.3906 3.3906-1.8711 0-3.3906-1.5195-3.3906-3.3906v-30.539c0-1.8711 1.5195-3.3906 3.3906-3.3906 1.8789 0 3.3906 1.5195 3.3906 3.3906zm13.578-50.898c0 1.8789-1.5195 3.3984-3.3984 3.3984h-54.281c-1.8789 0-3.3984-1.5195-3.3984-3.3984v-3.3906c0-1.8711 1.5195-3.3906 3.3984-3.3906h54.281c1.8789 0 3.3984 1.5195 3.3984 3.3906z" fill="#9b9b9b"/>
</svg>
