<?xml version="1.0" encoding="UTF-8"?>
<svg width="100pt" height="100pt" version="1.1" viewBox="0 0 100 100" xmlns="http://www.w3.org/2000/svg">
 <path d="m90.859 19.512-10.371-10.371c-2.3438-2.3633-6.0156-2.5195-8.1836-0.37109l-8.8672 8.8672-44.746 44.766c-0.019531 0.019531-0.019531 0.039062-0.039062 0.039062-0.078125 0.078125-0.11719 0.17578-0.17578 0.27344-0.039062 0.058594-0.078124 0.097656-0.11719 0.17578l-10.996 27.891c-0.21484 0.52734-0.078125 1.1328 0.3125 1.5234 0.27344 0.27344 0.64453 0.41016 1.0156 0.41016 0.17578 0 0.35156-0.039063 0.52734-0.097656l27.891-10.977c0.17578-0.078125 0.33203-0.17578 0.46875-0.29297 0 0 0.019531 0 0.019531-0.019531l53.613-53.633c2.168-2.1484 1.9922-5.8203-0.35156-8.1836zm-20.918 6.6602 3.7695 3.7695-43.281 43.281-3.3594-0.27344-0.29297-3.6328zm-5.5078-5.5078 3.4961 3.4766-43.418 43.418-3.0859-0.25391-0.27344-3.3594zm-53.203 68.105 2.2266-5.6641zm8.3594-3.2812c-0.039063-0.23438-0.097656-0.46875-0.17578-0.68359-0.039062-0.15625-0.097656-0.29297-0.15625-0.44922-0.3125-0.80078-0.78125-1.5625-1.4062-2.1875-0.058593-0.058594-0.11719-0.11719-0.17578-0.17578-0.29297-0.27344-0.625-0.50781-0.95703-0.72266-0.13672-0.078125-0.27344-0.15625-0.41016-0.23438-0.56641-0.29297-1.1719-0.48828-1.7773-0.60547l4.3555-11.094c0.039062 0.078124 0.097656 0.15625 0.13672 0.21484 0.23437 0.29297 0.56641 0.48828 0.97656 0.50781l4.0234 0.33203 0.33203 4.0039c0 0.13672 0.039062 0.25391 0.078125 0.37109 0.019531 0.078125 0.058594 0.15625 0.097656 0.21484 0.039062 0.078125 0.097656 0.13672 0.13672 0.19531 0.019531 0.039063 0.058593 0.058594 0.078125 0.097657 0.15625 0.15625 0.35156 0.27344 0.54688 0.35156 0.097656 0.039062 0.21484 0.058594 0.33203 0.078125l4.0039 0.3125 0.3125 3.9844c0.019532 0.33203 0.15625 0.625 0.37109 0.83984 0.097656 0.097656 0.21484 0.19531 0.33203 0.25391zm16.465-6.6406-3.3398-0.27344-0.25391-3.3398 43.281-43.281 3.5938 3.5938zm53.145-53.164-7.8711 7.8711 7.8711-7.8711c0.60547-0.60547 0.80078-1.4844 0.625-2.3633-0.019531-0.097656-0.058594-0.21484-0.078125-0.3125-0.039063-0.097656-0.078125-0.21484-0.11719-0.3125 0.039063 0.097657 0.078125 0.19531 0.11719 0.3125 0.039062 0.097657 0.058594 0.21484 0.078125 0.3125 0.17578 0.85938-0.019531 1.7578-0.625 2.3633z" fill="#9b9b9b"/>
</svg>
