<?xml version="1.0" encoding="UTF-8"?>
<svg width="100pt" height="100pt" version="1.1" viewBox="0 0 100 100" xmlns="http://www.w3.org/2000/svg">
 <g fill="#9b9b9b">
  <path d="m79.102 71.5 3.5 2 0.10156-0.19922c4.8984-6.8008 7.5-14.898 7.5-23.398 0.10156-10.898-4-21.102-11.602-28.699-7.6016-7.7031-17.703-12.004-28.5-12.004-22.301 0-40.5 18.199-40.5 40.5s18.102 40.398 40.398 40.398c3.8984 0 7.6016-0.5 11.102-1.6016l0.19922-0.10156-0.80078-4-0.30078 0.10156c-3.3984 1-6.8984 1.6016-10.398 1.6016-20 0-36.301-16.301-36.301-36.301s16.301-36.301 36.301-36.301 36.301 16.301 36.301 36.301c0 7.6992-2.3984 15.102-7 21.5z"/>
  <path d="m84.199 16c-9.0977-9.1992-21.301-14.199-34.098-14.199-4.5 0-8.8008 0.60156-12.898 1.8008l-0.19922 0.10156 0.69922 3.6992 0.30078-0.10156c4-1.1016 8.1016-1.6992 12.102-1.6992 24.5 0 44.5 19.898 44.5 44.5-0.003907 24.598-20.004 44.398-44.504 44.398-24.602-0.10156-44.5-20.102-44.5-44.602 0-9.3008 2.8008-18.102 8.1992-25.699l0.19922-0.19922-3.3008-1.8984-0.10156 0.19922c-5.7969 8.0977-8.7969 17.699-8.7969 27.801 0 26.5 21.602 48.102 48.102 48.102 26.602 0 48.301-21.602 48.301-48.102-0.003906-12.902-4.9023-25-14.004-34.102z"/>
  <path d="m49.801 27-26.699 17.898 2.3008 3.3984 5.3008-3.6016v24.602h38.602l-0.003907-24.398 5.1992 3.3984 2.3008-3.3984zm7.0977 27.699c-1 1.8984-6.3984 6.8984-6.8008 7.3984-0.60156-0.60156-5.8008-5.5-6.8008-7.3008 0 0-2.6992-3.3008 0-5.8008 0 0 3.8984-3.3008 6.8008 1.1992 2.8984-4.5 6.8008-1.1992 6.8008-1.1992 2.7031 2.4023 0 5.7031 0 5.7031z"/>
 </g>
</svg>
