<?xml version="1.0" encoding="UTF-8"?>
<svg width="100pt" height="100pt" version="1.1" viewBox="0 0 100 100" xmlns="http://www.w3.org/2000/svg">
 <path d="m82 38.219v-13.758c0-1.6094-1.3008-2.9219-2.9102-2.9219h-6.0312c-1.6094 0-2.9219 1.3086-2.9219 2.9219v3.4688l-16.945-14.719c-1.8281-1.5898-4.5508-1.5898-6.3906 0l-38.48 33.41c-1.5312 1.3281-2.0781 3.4805-1.3711 5.3906 0.71875 1.8984 2.5312 3.1719 4.5586 3.1719h7.3789v30c0 1.5508 1.2617 2.8086 2.8086 2.8086h16.578l0.007812-21.82c0-3.0781 2.5-5.5781 5.5781-5.5781h12.281c3.0781 0 5.5781 2.5 5.5781 5.5781v21.809h16.57c1.5508 0 2.8086-1.25 2.8086-2.8086v-30h7.3828c2.6914 0 4.8711-2.1797 4.8711-4.8789 0-1.5391-0.71094-2.9102-1.8281-3.8086z" fill="#9b9b9b"/>
</svg>
