<?xml version="1.0" encoding="UTF-8"?>
<svg width="100pt" height="100pt" version="1.1" viewBox="0 0 100 100" xmlns="http://www.w3.org/2000/svg">
 <path d="m98.648 35.098c0.32031-1.7617-0.097657-3.5781-1.1523-5.0273 0.27734-1.5117-0.17188-3.0625-1.2109-4.1992-0.69922-0.78516-1.6406-1.3164-2.6719-1.5117-4.25-8.9922-12.477-14.836-22.371-14.836-7.9062 0.066406-15.375 3.6367-20.391 9.75-0.20703 0.25391-0.51953 0.40234-0.85156 0.40234s-0.64453-0.14844-0.85156-0.40234c-5.0156-6.1133-12.484-9.6836-20.391-9.75-9.8984 0-18.125 5.8438-22.371 14.84-1.0352 0.19141-1.9727 0.72266-2.6719 1.5078-1.0391 1.1367-1.4883 2.6875-1.2148 4.1992-1.0547 1.4492-1.4688 3.2656-1.1484 5.0273-0.70703 2.0938-0.60156 4.3789 0.30078 6.3984 0.050781 2.1719 1.1523 4.5352 2.9375 6.957 0.80859 3.1797 1.8906 6.2852 3.2305 9.2812-0.12109 0.078125-0.23828 0.16797-0.34766 0.26172-0.95703 0.83984-1.3125 2.1797-0.89844 3.3828 2.5312 7.4102 7.3086 12.535 14.195 15.234 0.86719 0.33984 1.7578 0.62891 2.6641 0.88281 11.562 9.3047 21.031 12.039 24.887 12.812v0.003906c0.55469 0.10938 1.1172 0.16406 1.6797 0.16406s1.125-0.054687 1.6797-0.16406c3.8672-0.78125 13.336-3.5117 24.898-12.82 0.89844-0.25391 1.7891-0.54297 2.6523-0.87891 6.8867-2.6953 11.664-7.8203 14.195-15.234 0.41406-1.207 0.058594-2.5469-0.89844-3.3867-0.10938-0.089844-0.22266-0.17578-0.33984-0.25391 1.3242-2.9883 2.3945-6.082 3.1953-9.2539 1.8008-2.4336 2.9141-4.8125 2.9688-6.9961v0.003907c0.89844-2.0195 1.0039-4.3008 0.29688-6.3945zm-92.969 10.793c0.36719 0.20312 0.75 0.375 1.1445 0.51172 0.61328 0.21094 1.2812-0.12109 1.4883-0.73047 0.20703-0.61328-0.12109-1.2812-0.73438-1.4883-1.625-0.63672-2.9492-1.8711-3.6992-3.4492-0.32031-0.66797-0.52344-1.3867-0.60156-2.125 1.4453 1.4375 3.1719 2.5664 5.0664 3.3203 0.28906 0.125 0.61719 0.12891 0.91016 0.007812 0.29297-0.12109 0.52344-0.35156 0.64453-0.64453 0.11719-0.29297 0.10937-0.62109-0.015626-0.91016-0.12891-0.28906-0.36719-0.51562-0.66406-0.625-2.2656-0.91406-4.8945-2.668-5.5156-4.8633-0.21094-0.76562-0.16797-1.5742 0.125-2.3086 1.5742 1.6914 3.5039 3.0156 5.6484 3.8828 0.33594 0.16016 0.67188 0.32031 1.0078 0.48438 0.57812 0.28906 1.2812 0.050781 1.5703-0.52734 0.28516-0.57812 0.050781-1.2852-0.53125-1.5703-0.34766-0.17188-0.69531-0.33594-1.0469-0.50391h0.003907c-1.9336-0.75781-3.6602-1.9492-5.0547-3.4844-0.90234-0.96484-0.89453-2.4648 0.019531-3.418 0.65625-0.84766 1.8555-1.0547 2.7578-0.47266 1.8516 1.293 6.5391 3.9531 9.4805 4.543 1.6523 0.44922 3.4023-0.21094 4.3398-1.6406 1.8242-2.3945 2.0117-7.9062 1.707-10.328-0.27344-2.1797 0.92969-3.1836 2.043-3.3789h0.003906c0.57422-0.11719 1.1758 0.003906 1.6602 0.33594 0.48438 0.33203 0.8125 0.84766 0.91016 1.4297 0.23047 1.0039 0.45312 2.0195 0.67969 3.0391 2.3945 10.832 5.1094 23.109 17.344 32.312 0.44922 0.33984 0.91797 0.66406 1.3945 0.98438h-0.003906c-8.1914 4.2852-17.395 6.2578-26.625 5.6992-6.8281-4.7109-12.699-9.8164-15.457-14.082zm85.527 14.734c-2.2969 6.7266-6.6133 11.371-12.832 13.805-7.1797 2.8125-15.832 2.4219-23.973 0.66016h0.003906c4.7852-1.5547 9.4297-3.5195 13.879-5.8789 3.3594-1.8125 7.4023-4.2227 11.422-6.9531 3.6016-0.21875 7.1289-1.1016 10.406-2.6094 0.28125-0.15234 0.62891-0.10547 0.86719 0.10937 0.25 0.21094 0.33984 0.55859 0.22656 0.86719zm4.9141-19.891c-0.74609 1.5781-2.0703 2.8125-3.6953 3.4492-0.30078 0.09375-0.55078 0.30859-0.69141 0.58594-0.14453 0.28125-0.16797 0.60938-0.066406 0.90625 0.10156 0.30078 0.31641 0.54297 0.60156 0.67969 0.28125 0.13672 0.60938 0.15625 0.90625 0.050781 0.39844-0.14062 0.78125-0.31641 1.1523-0.51953-4.2695 6.6055-15.969 15.215-27.156 21.262-10.008 5.4102-30.859 13.027-45.547 7.2812-6.2188-2.4336-10.531-7.0781-12.832-13.805-0.11328-0.30859-0.023438-0.65625 0.22656-0.86719 0.23828-0.21484 0.58594-0.26172 0.86719-0.10937 11.152 5.5078 32.004 2.4805 43.75-6.3555 12.234-9.207 14.945-21.484 17.34-32.316 0.22656-1.0195 0.44922-2.0312 0.67969-3.0391 0.097656-0.58203 0.42578-1.0977 0.91016-1.4297 0.48438-0.33203 1.082-0.45312 1.6602-0.33594 1.1133 0.19531 2.3164 1.1992 2.043 3.3789-0.30469 2.4219-0.11328 7.9336 1.7109 10.328 0.9375 1.4297 2.6875 2.0898 4.3359 1.6406 2.9453-0.58984 7.6289-3.25 9.4844-4.543 0.90234-0.57812 2.0938-0.37109 2.7539 0.47266 0.91406 0.95312 0.92187 2.4531 0.019531 3.418-1.3945 1.5352-3.1211 2.7266-5.0547 3.4844-0.35156 0.16406-0.70312 0.33203-1.0469 0.50391h0.003906c-0.28125 0.13672-0.49219 0.37891-0.58984 0.67578-0.10156 0.29297-0.078125 0.61719 0.058593 0.89453 0.28906 0.57812 0.99219 0.81641 1.5703 0.52734 0.33594-0.16797 0.67188-0.32422 1.0078-0.48438 2.1445-0.86719 4.0742-2.1914 5.6484-3.8828 0.29297 0.73437 0.33594 1.5469 0.125 2.3086-0.625 2.1953-3.2539 3.9531-5.5156 4.8633h0.003906c-0.29688 0.10938-0.53516 0.33594-0.66016 0.625-0.125 0.28906-0.12891 0.61328-0.011719 0.90625 0.11719 0.29297 0.34766 0.52734 0.63672 0.64453 0.29297 0.12109 0.62109 0.12109 0.91016-0.003906 1.8945-0.75391 3.6133-1.8789 5.0625-3.3164-0.078125 0.73828-0.28125 1.4531-0.60156 2.1211z" fill="#9b9b9b"/>
</svg>
