<?xml version="1.0" encoding="UTF-8"?>
<svg width="100pt" height="100pt" version="1.1" viewBox="0 0 100 100" xmlns="http://www.w3.org/2000/svg">
 <g fill="#9b9b9b">
  <path d="m55.859 0h1.9531c0.23438 0.097656 0.48047 0.17578 0.72656 0.23047 4.6992 0.66797 9.3945 1.3555 14.102 1.9766 3.0234 0.39062 6.0547 0.84766 9.0977 0.99219 3.5391 0.16406 7.0898 0 10.637 0.015625 3.7461 0.023437 6.4922 2.2812 7.4219 6.0156v-0.003907c0.054687 0.15625 0.12109 0.30469 0.20312 0.44531v82c-0.0625 0.074219-0.11328 0.16016-0.15625 0.25-1.0898 4.0898-3.7891 6.2109-7.8945 6.2188-3.4141 0-6.8359 0-10.25 0.03125-3.8047 0.03125-7.6172-0.10156-11.414 0.19531-4.2422 0.32812-8.4531 1.0547-12.684 1.5938-1.5156 0.19531-2.8828-0.21094-4.1562-1.1016l0.003907-0.007813c-0.46094-0.32422-1.0078-0.51172-1.5742-0.53906-4.5547-0.03125-9.1094 0.015625-13.672 0-3.7539-0.015625-6.8672-2.7031-7.3906-6.5391-0.23438-1.7148-0.10156-3.4805-0.10938-5.2266h0.003906c0.039063-0.21484 0.16406-0.40234 0.34375-0.52344 1.1406-0.82813 2.3047-1.6328 3.4531-2.4531 0.8125-0.58594 1.6094-1.1719 2.5781-1.8828 0 1.7852-0.023437 3.3203 0 4.8555 0.054688 3.3203 2.4453 6.2344 5.6367 6.5469 2.3516 0.23438 4.7422 0.054687 7.1172 0.15234 1.0078 0.039062 1.3047-0.25391 1.3008-1.3242-0.03125-12.109-0.015625-24.238-0.007813-36.359 0.007813-15.074 0.019532-30.145 0.039063-45.219 0-0.79688-0.16797-1.1328-1.0195-1.1055-2.0156 0.0625-4.0352 0.015625-6.0547 0.03125-4.1797 0.039063-7.0312 2.9922-7.0312 7.3047v12.086c0 0.3125-0.03125 0.62109-0.054688 1.0156-2.0859-1.4766-4.0703-2.8672-6.0312-4.2969-0.17969-0.12891-0.25781-0.51172-0.25781-0.78125-0.011719-4.5664-0.039062-9.1328 0.015625-13.695 0.039063-3.4688 2.3086-6.4258 5.5781-7.2461 1.0898-0.27344 2.25-0.32031 3.3828-0.33594 3.7422-0.046875 7.4844-0.023437 11.227-0.050781 0.32812 0 0.82812-0.070313 0.94531-0.28906 0.90625-1.6094 2.3516-2.4219 3.9922-2.9766zm13.195 50.82c-0.011719-2.3594-0.53906-4.332-1.8828-6.0039-2.1484-2.6719-5.5078-2.6953-7.6797-0.082031-2.6055 3.1328-2.5898 8.6211 0.03125 11.719 2.0977 2.4844 5.25 2.5625 7.4219 0.14062 1.5-1.6719 2.0781-3.7344 2.1094-5.7734z"/>
  <path d="m45.418 51.668-3.1602-2.8398c-4.375-3.9453-8.9062-8.0234-13.445-11.898-0.67188-0.57031-2.707-2.3125-4.6484-1.1523-2.0312 1.2109-2.1484 4.6094-2.1836 5.7266-0.0625 1.9531-0.046875 3.8594-0.03125 5.8867v0.59766h-3.1992c-3.7109 0.007813-7.2031 0.019531-10.699-0.023437h-0.17578c-4.7617 0-7.3984 2.5-7.8398 7.4219-0.17969 2.0195 0.27344 3.832 1.3086 5.2422 1.3906 1.8828 3.7344 2.9023 6.7656 2.9375 3.4844 0.042969 6.9531 0.03125 10.629 0.023438h3.2188v1.0469c-0.011719 2.2109-0.023437 4.125 0.03125 6.0859 0.089844 3.3203 1.2109 4.6719 2.1328 5.2266h-0.003906c0.42969 0.25781 0.91797 0.39062 1.4141 0.39062 0.78125 0 1.7695-0.32812 2.9297-1.3242 4.5586-3.9062 9.1172-7.9766 13.523-11.914 1.1445-1.0234 2.2891-2.043 3.4297-3.0664 1.6875-1.5156 2.0469-3.1055 2.0469-4.1758s-0.35156-2.6719-2.043-4.1914z"/>
 </g>
</svg>
