<?xml version="1.0" encoding="UTF-8"?>
<svg width="100pt" height="100pt" version="1.1" viewBox="0 0 100 100" xmlns="http://www.w3.org/2000/svg">
 <g fill="#9b9b9b">
  <path d="m4.2852 80.375c0 8.457 6.8789 15.336 15.332 15.336h9.668c2.3672 0 4.2852-1.918 4.2852-4.2852 0-2.3672-1.918-4.2852-4.2852-4.2852l-9.6641-0.003906c-3.7305 0-6.7617-3.0312-6.7617-6.7617l-0.003906-60.75c0-3.7305 3.0312-6.7617 6.7617-6.7617l9.668-0.003906c2.3672 0 4.2852-1.918 4.2852-4.2852 0-2.3672-1.918-4.2852-4.2852-4.2852h-9.6641c-8.457 0-15.336 6.8789-15.336 15.336z"/>
  <path d="m91.43 34.289h-34.285v-14.285c0-1.7344-1.043-3.2969-2.6445-3.9609-1.6016-0.66797-3.4453-0.29688-4.6719 0.92969l-30.004 30c-0.80469 0.80469-1.2539 1.8945-1.2539 3.0312 0 1.1367 0.45313 2.2266 1.2539 3.0312l30 30c1.2461 1.25 3.1055 1.582 4.6719 0.92969 1.6016-0.66797 2.6484-2.2305 2.6484-3.9648v-12.855h34.285c2.3672 0 4.2852-1.918 4.2852-4.2852v-24.285c0-2.3672-1.918-4.2852-4.2852-4.2852zm-4.2852 24.285h-34.285c-2.3672 0-4.2852 1.918-4.2852 4.2852v6.7969l-19.652-19.652 19.656-19.652v8.2266c0 2.3672 1.918 4.2852 4.2852 4.2852l34.281-0.003906z"/>
 </g>
</svg>
