<?xml version="1.0" encoding="UTF-8"?>
<svg width="100pt" height="100pt" version="1.1" viewBox="0 0 100 100" xmlns="http://www.w3.org/2000/svg">
 <g fill="#167222">
  <path d="m50 86c-9.5469 0-18.703-3.793-25.457-10.543-6.75-6.7539-10.543-15.91-10.543-25.457s3.793-18.703 10.543-25.457c6.7539-6.75 15.91-10.543 25.457-10.543s18.703 3.793 25.457 10.543c6.75 6.7539 10.543 15.91 10.543 25.457s-3.793 18.703-10.543 25.457c-6.7539 6.75-15.91 10.543-25.457 10.543zm0-66c-7.957 0-15.586 3.1602-21.215 8.7852-5.625 5.6289-8.7852 13.258-8.7852 21.215s3.1602 15.586 8.7852 21.215c5.6289 5.625 13.258 8.7852 21.215 8.7852s15.586-3.1602 21.215-8.7852c5.625-5.6289 8.7852-13.258 8.7852-21.215s-3.1602-15.586-8.7852-21.215c-5.6289-5.625-13.258-8.7852-21.215-8.7852z"/>
  <path d="m50 56.238c-1.6562 0-3-1.3398-3-3v-4.2383c0-1.6562 1.3438-3 3-3 1.9805 0 3.7695-1.1953 4.5273-3.0234 0.75781-1.832 0.33984-3.9414-1.0625-5.3398-1.4023-1.4023-3.5078-1.8203-5.3398-1.0625-1.832 0.75781-3.0234 2.543-3.0234 4.5273 0 1.6562-1.3438 3-3 3-1.6602 0-3-1.3438-3-3 0.011719-4.1328 2.3555-7.9023 6.0586-9.7344 3.6992-1.8359 8.1172-1.4219 11.414 1.0703 3.293 2.4922 4.8984 6.6289 4.1406 10.691-0.75781 4.0586-3.7422 7.3438-7.7148 8.4805v1.6289c0 1.6602-1.3438 3-3 3z"/>
  <path d="m50 68.289c-1.6562 0-3-1.3438-3-3v-1.4102c0-1.6562 1.3438-3 3-3s3 1.3438 3 3v1.4102c0 1.6562-1.3438 3-3 3z"/>
 </g>
</svg>
