<?xml version="1.0" encoding="UTF-8"?>
<svg width="100pt" height="100pt" version="1.1" viewBox="0 0 100 100" xmlns="http://www.w3.org/2000/svg">
 <path d="m44.988 30.074h10.02c3.1836 0 5.7891 2.6055 5.7891 5.7891v10.586c0 2.2109-1.2578 4.1445-3.0938 5.1172l-1.8242 17.621c-0.16406 1.582-1.3047 2.8945-2.8945 2.8945h-5.9727c-1.5898 0-2.7305-1.3086-2.8945-2.8945l-1.8242-17.621c-1.8359-0.97266-3.0938-2.9062-3.0938-5.1172v-10.586c0-3.1836 2.6055-5.7891 5.7891-5.7891zm27.016 4.9258h12.656c4.0234 0 7.3164 3.2891 7.3164 7.3125v13.375c0 2.7969-1.5898 5.2383-3.9102 6.4688l-2.3008 22.262c-0.20703 2-1.6445 3.6562-3.6562 3.6562h-7.5469c-2.0117 0-3.4492-1.6562-3.6562-3.6562l-2.3008-22.262c-2.3203-1.2305-3.9102-3.6719-3.9102-6.4688v-13.375c0-4.0234 3.293-7.3125 7.3164-7.3125zm6.3281-22.934c5.543 0 10.039 4.4922 10.039 10.039 0 5.543-4.4922 10.035-10.039 10.035-5.543 0-10.035-4.4922-10.035-10.035s4.4961-10.039 10.035-10.039zm-62.996 22.934h12.656c4.0234 0 7.3125 3.2891 7.3125 7.3125v13.375c0 2.7969-1.5898 5.2383-3.9102 6.4688l-2.3047 22.262c-0.20703 2-1.6445 3.6562-3.6562 3.6562h-7.5469c-2.0117 0-3.4531-1.6562-3.6562-3.6562l-2.3008-22.262c-2.3203-1.2305-3.9102-3.6719-3.9102-6.4688v-13.375c0-4.0234 3.2891-7.3125 7.3125-7.3125zm6.3281-22.934c5.543 0 10.035 4.4922 10.035 10.039 0 5.543-4.4961 10.035-10.035 10.035-5.543 0-10.039-4.4922-10.039-10.035s4.4922-10.039 10.039-10.039zm28.332-0.14453c4.3867 0 7.9453 3.5586 7.9453 7.9453 0 4.3867-3.5586 7.9453-7.9453 7.9453-4.3867 0-7.9453-3.5586-7.9453-7.9453 0-4.3867 3.5586-7.9453 7.9453-7.9453z" fill="#9b9b9b" fillRule="evenodd"/>
</svg>
