<?xml version="1.0" encoding="UTF-8"?>
<svg width="100pt" height="100pt" version="1.1" viewBox="0 0 100 100" xmlns="http://www.w3.org/2000/svg">
 <path d="m47.746 70.27c17.719-3.0039 35.137-15.316 30.629-33.031 21.621 5.4062 26.125 24.926 7.8086 34.535 0 4.8047 2.7031 7.8086 6.0078 11.109-5.4062-0.60156-12.012-3.9023-17.418-7.207 0 0-15.016 2.7031-27.027-5.4062zm-8.707-53.152c20.121 0 36.637 11.41 36.637 25.227 0 13.215-15.016 24.023-34.234 24.926-7.5078 6.0078-17.117 12.312-21.621 13.215 3.6055-3.9023 7.5078-8.1094 6.9062-14.715-14.113-3.3047-24.324-12.613-24.324-23.422 0-13.812 16.516-25.227 36.637-25.227z" fill="#9b9b9b" fill-rule="evenodd"/>
</svg>
