<?xml version="1.0" encoding="UTF-8"?>
<svg width="100pt" height="100pt" version="1.1" viewBox="0 0 100 100" xmlns="http://www.w3.org/2000/svg">
 <path d="m98.129 4.1758c-18.48 3.1641-34.477 12.109-47.535 22.512-14.391-12.871-26.918-19.887-26.918-19.887-6.0117-3.7461-13.531-2.7109-19.324 0-5.8008 2.7031-5.8008 11.203 0 12.363 12.715 4.9766 23.891 11.566 33.656 18.77-17.273 17.191-26.836 34.262-26.836 34.262-3.7383 6.0117-2.7031 13.531 0 19.324 2.7109 5.8008 11.211 5.8008 12.371 0 6.7656-17.281 16.477-31.738 26.719-43.625 29.672 26.477 42.324 55.43 41.434 45.871-3.9883-23.305-17.16-42.648-30.859-57.137 23.68-23.254 45.828-33.25 37.293-32.453z" fill="#9b9b9b"/>
</svg>
