<?xml version="1.0" encoding="UTF-8"?>
<svg width="100pt" height="100pt" version="1.1" viewBox="0 0 100 100" xmlns="http://www.w3.org/2000/svg">
 <path d="m99.988 39.227c-0.41797-13.723-6.1016-20.477-10.797-23.723-9.0586-6.2656-19.758-3.457-21.812-2.8281-8.8203 2.7031-13.605 9.9453-15.277 12.984-1.8477-3.0078-7.0898-10.277-15.926-12.984-2.0547-0.62891-12.758-3.4414-21.809 2.8281-4.6953 3.25-10.383 10-10.805 23.727 0 0.046875-0.003906 0.085937-0.003906 0.12891-2.2461 1.5273-3.5742 4.6016-3.5586 6.8672 0.042969 5.0703 3.6094 9.043 3.7344 9.1797 0.089844 0.10938 2.1992 2.6523 6.9336 5.1211 4.5977 6.6367 11.457 13.121 19.875 18.801-0.19922 0.35938-0.30859 0.75-0.30859 1.1719 0 1.4258 0.98438 2.5078 2.9219 3.2344-0.015625 0.11719-0.046875 0.23438-0.046875 0.35156 0 0.80859 0.33203 1.5273 0.98047 2.125 2.0547 1.8906 7.25 2.2852 11.262 2.2852 2.4375 0 4.4375-0.14844 5.0234-0.19531 0.74609 0.039063 7.6172 0.33203 11.027-1.332 0.22656 0.003906 0.45312 0.007812 0.67969 0.007812 8.1602 0 15.359-2.9531 20.863-8.5742 5.4805-5.5859 7.6602-13.594 7.9844-14.883 6.1719-7.9141 9.3047-16.312 9.0586-24.293zm-88.41 19.988c-4.5469-2.332-6.5938-4.7891-6.6406-4.8438-0.035156-0.039063-3.3125-3.7031-3.3516-8.1562-0.011719-1.7656 1.0273-4.2617 2.7539-5.4961 2.1914 1.3125 12.188 6.3008 34.156 3.918-0.46484 3.0742-1.6094 12.164-0.058594 18.527-13.141 1.3711-21.84-1.3711-26.859-3.9492zm48.988 26.391c-3.2031 1.4688-10.094 1.1094-10.16 1.1094-0.035156 0-0.074219-0.003906-0.10938 0-3.3945 0.28125-12.734 0.53516-15.133-1.6719-0.28516-0.26562-0.42969-0.53906-0.45703-0.84766 2.3477 0.55078 5.2969 0.70313 7.793 0.70313 0.50391 0 0.99219-0.003907 1.4492-0.015626 0.4375-0.011718 0.78516-0.37109 0.77734-0.80859-0.007812-0.4375-0.35547-0.75781-0.80859-0.77734-2.875 0.066406-6.8594-0.03125-9.5547-0.82422-1.6875-0.49219-2.5391-1.1562-2.5391-1.9688 0-0.17969 0.039062-0.44922 0.41797-0.76953 0.023437-0.019531 0.050781-0.035156 0.074218-0.054687 2.5078 0.98437 6.3945 1.2266 9.5312 1.2266 2.6797 0 4.7969-0.16797 4.9883-0.18359 0.4375-0.035156 0.76172-0.41797 0.72656-0.85547-0.039062-0.4375-0.40625-0.75391-0.85547-0.72656-0.097656 0.007813-10.086 0.80859-14.176-1.0742-1.4258-0.65234-1.4258-1.332-1.4258-1.5547 0-0.83594 1.25-1.3516 2.1211-1.6094 2.5078 0.625 5.7344 0.79297 8.4336 0.79297 2.8359 0 5.0781-0.18359 5.2578-0.19531 0.4375-0.035156 0.76172-0.41797 0.72656-0.85547-0.035156-0.4375-0.41016-0.76953-0.85547-0.72656-0.085937 0.003906-8.5195 0.6875-13.379-0.60156-1.375-0.36719-3.0156-1.0469-3.0156-2.1953 0-0.19141 0.042969-0.48438 0.41797-0.82422 2.668-2.3984 14.504-1.7227 18.84-1.2617 0.3125 0.035156 0.60547-0.11328 0.76172-0.37891 0.16016-0.26172 0.15234-0.59766-0.019531-0.85156-0.70312-1.0508-2.4766-1.6797-4.5312-2.4062-1.6055-0.57031-3.2695-1.1562-4.1953-1.9023-0.77734-0.61719-0.6875-1.0508-0.54688-1.4102 0.40234-1 1.7031-0.83984 4.5781-0.23828 1.6445 0.34375 3.5117 0.73438 5.4727 0.73438 3.0625 0 6.168 2.1055 7.7422 3.3555 0.70703 0.5625 1.2148 1.0391 1.4648 1.2773 0.28125 1.6836 1.9414 11.988 0.1875 18.391zm-0.92188-21.105c-2.125-1.6445-5.2422-3.5117-8.4844-3.5117-1.7969 0-3.5742-0.37109-5.1445-0.70312-2.7461-0.57422-5.3398-1.1133-6.3242 1.0859-1.1328-6.6289 0.23047-15.652 0.49219-17.254 0.91016-0.85156 5.3828-4.8125 9.7227-4.8125 2.0312 0 3.9648-0.40625 5.6719-0.76563 3.0039-0.63281 4.3633-0.79687 4.7891 0.26563 0.125 0.3125 0.13281 0.56641 0.015624 0.81641-0.48437 1.0742-2.957 1.9492-4.9414 2.6523-2.1367 0.75781-3.9844 1.4102-4.707 2.5-0.17188 0.25781-0.17969 0.58984-0.019531 0.85156s0.45312 0.41406 0.76172 0.37891c4.5078-0.48047 16.812-1.1836 19.59 1.3125 0.39844 0.35938 0.44531 0.67188 0.44531 0.875 0 1.2148-1.7109 1.9219-3.1445 2.3047h-0.011719c-5.0586 1.3438-13.824 0.64453-13.914 0.63672-0.43359-0.035156-0.82031 0.28906-0.85547 0.72656-0.035157 0.4375 0.28906 0.82031 0.72656 0.85547 0.1875 0.015625 2.4961 0.19922 5.4258 0.19922 2.8086 0 6.1836-0.17578 8.8008-0.83203 0.90625 0.27344 2.2266 0.82031 2.2266 1.7109 0 0.23438 0 0.94922-1.4961 1.6445-4.25 1.9531-14.633 1.1211-14.738 1.1133-0.42969-0.03125-0.82031 0.28906-0.85547 0.72656-0.035156 0.4375 0.28906 0.82031 0.72656 0.85547 0.19922 0.015626 2.3984 0.19141 5.1836 0.19141 3.2656 0 7.3125-0.25 9.9102-1.2773 0.45312 0.35156 0.51562 0.67188 0.51562 0.89844 0 0.85156-0.89453 1.5508-2.6602 2.0703-2.7852 0.82031-6.957 0.92188-9.9648 0.85547-0.43359 0.015625-0.80078 0.33984-0.80859 0.77734s0.33984 0.80078 0.77734 0.80859c0.46875 0.007813 0.96484 0.015625 1.4844 0.015625 2.6289 0 5.7383-0.15625 8.1836-0.73828-0.078126 1.4414-2.75 2.4414-7.3789 2.7656zm22.164 12.793c-6.4023 6.5391-13.988 8.0625-19.547 8.0977 1.4297-6.0938 0.28125-14.68-0.19531-17.66 14.277 1.5039 22.102-1.2852 26.922-3.2148-0.85938 2.7305-3.0547 8.5703-7.1797 12.777z" fill="#9b9b9b"/>
</svg>
