<?xml version="1.0" encoding="UTF-8"?>
<svg width="100pt" height="100pt" version="1.1" viewBox="0 0 100 100" xmlns="http://www.w3.org/2000/svg">
 <g>
  <path d="m74.801 46.457c-0.26953 0.125-0.57812 0.089844-0.8125-0.09375-0.23047-0.17969-0.34375-0.47656-0.28516-0.76562 0.57812-2.9414 0.73438-5.9766 0.47266-9.0156-0.074219-0.83984-0.16797-1.6484-0.53906-2.2852-0.39844-0.69531-1.1602-1.2656-2.1445-1.6094-0.4375-0.14453-0.94531-0.28125-1.4531-0.39844-0.26172-0.054687-0.55469 0-0.78906 0.15625-0.21484 0.14063-0.35938 0.35938-0.40625 0.60547-1.0781 5.8672-4.6289 11.797-9.9922 16.68-2.6641 2.4375-5.6016 4.5273-8.6484 6.4336l-0.007813 0.003907c-2.9414 1.8398-5.9844 3.5117-8.9766 5.1562-9.2383 5.0742-19.457 9.3164-30.367 12.609-0.91797 0.27734-1.6484 0.94531-2 1.8359-1.9414 4.8789-2.3398 10.324-1.125 15.344 0.39063 1.6602 1.0312 3.0352 1.9062 4.0938 3.3203 3.9727 8.168 2.3047 12.023 0.40625 7-3.4648 13.598-8.0117 19.977-12.406 7.9766-5.5 16.227-11.184 25.391-14.852 2.2578-0.91016 4.5977-1.7031 6.8594-2.4688 2.9609-1.0039 6.0234-2.043 8.9062-3.3438 5.9062-2.6641 10.07-6.1133 12.375-10.246 1.1914-2.1562 1.9219-5.1289 1.4102-7.7422-0.39844 0.90625-0.90234 1.7695-1.3867 2.5938-1.9531 3.3359-4.9219 6.2188-8.5859 8.3359-0.125 0.070313-0.25781 0.10547-0.39062 0.10547-0.26953 0-0.53125-0.14062-0.67578-0.39062-0.21875-0.375-0.089844-0.85156 0.28516-1.0664 3.4297-1.9844 6.2031-4.6758 8.0195-7.7734 1.4219-2.4297 2.375-4.2969 1.6992-6.2656-0.4375-1.2734-1.4219-2.1445-2.3242-2.7109-0.007813 0.37109-0.03125 0.76172-0.078125 1.1719-0.44531 3.4141-3.7031 7.7266-8.2891 10.992-0.35156 0.25-0.83984 0.16797-1.0898-0.18359-0.25-0.35156-0.16797-0.83984 0.18359-1.0898 4.8359-3.4414 7.3242-7.4609 7.6484-9.918 0.10547-0.86328 0.082031-1.6914 0.042968-2.2344-0.042968-0.66406-0.125-1.1055-0.12891-1.1289-0.066406-0.28125-0.15625-0.60938-0.24609-0.90625-0.097656-0.32031-0.37891-0.40625-0.49609-0.42578-0.09375-0.019531-0.42578-0.050781-0.65625 0.24219-4.3594 5.625-9.5078 9.8477-15.301 12.555z"/>
  <path d="m11.52 33.84c3.6953 4.5391 7.9336 8.082 12.641 10.531-0.38281-2.6016-0.46094-5.2578-0.23438-7.9219 0.085938-0.98047 0.21094-2.0156 0.74219-2.9336 0.58203-1.0156 1.6406-1.832 2.9805-2.2969 0.5-0.16797 1.0547-0.31641 1.6094-0.44531 0.70703-0.14844 1.4336-0.007813 2.0156 0.375 0.56641 0.375 0.94531 0.94922 1.0742 1.6133 1.0195 5.5469 4.3984 11.164 9.5078 15.82 2.2109 2.0273 4.8359 3.9844 7.9727 5.9727 2.8164-1.7891 5.5234-3.7344 7.9727-5.9727 5.1133-4.6602 8.4883-10.273 9.5078-15.816 0.12891-0.66797 0.50781-1.2422 1.0742-1.6172 0.58203-0.38672 1.3086-0.52344 1.9961-0.38281 0.57031 0.13281 1.1289 0.28125 1.6172 0.44531 1.3516 0.46875 2.4102 1.2891 2.9922 2.3047 0.52734 0.91016 0.65625 1.9492 0.74219 2.9297 0.23047 2.6641 0.15234 5.3203-0.23438 7.9219 4.8594-2.5273 9.2188-6.2188 13-10.973 0.03125-0.17969 0.0625-0.35938 0.089844-0.53906l0.0625-0.41016c0.52344-3.7461 2.1133-15.133-5.4414-23.293-4.2344-4.5781-9.543-6.9844-14.898-6.7969-6.0273 0.21094-10.211 3.4766-12.168 5.4023-1.6484 1.6641-2.9805 3.7031-3.9492 6.0547-0.35938 0.89062-1.1758 1.4453-2.1289 1.4453h-0.003906c-0.96094 0-1.8203-0.58203-2.1875-1.4805-0.93359-2.1953-2.3125-4.2266-4.0977-6.0273-1.9531-1.9219-6.1328-5.1836-12.16-5.3945-5.3672-0.19922-10.664 2.2188-14.898 6.7969-5.0469 5.4453-6.8711 13.289-5.4258 23.312 0.066407 0.46094 0.14063 0.92188 0.23047 1.375zm72.352-7.5547c-0.097656 0.66797-0.23828 1.3281-0.42188 1.9609-0.097657 0.34375-0.41016 0.56641-0.75 0.56641-0.070313 0-0.14453-0.007812-0.21484-0.03125-0.41406-0.11719-0.65625-0.55078-0.53906-0.96484 0.16406-0.56641 0.28906-1.1602 0.375-1.7578 0.0625-0.42578 0.45703-0.73438 0.88672-0.66016 0.42578 0.0625 0.72266 0.46094 0.66016 0.88672zm-12.648-17.789c4.2734 0.79688 8.1875 3.4805 10.477 7.1719 0.76562 1.2383 1.3594 2.5977 1.7578 4.0352 0.11719 0.41406-0.12891 0.84766-0.54688 0.96094-0.070312 0.019532-0.14062 0.027344-0.21094 0.027344-0.34375 0-0.65625-0.22656-0.75-0.57422-0.35938-1.2969-0.89062-2.5156-1.5781-3.6289-2.0586-3.3281-5.5859-5.7422-9.4336-6.4609-0.42188-0.078125-0.70312-0.48828-0.625-0.91016 0.078125-0.42188 0.48047-0.70313 0.91016-0.625z"/>
  <path d="m16.867 62.539c2.8984 1.3047 5.9727 2.3516 8.9414 3.3594l1.3828 0.47266c4.6094-1.957 9.0508-4.0938 13.273-6.4141 2.6289-1.4414 5.2969-2.9141 7.8945-4.4961-2.9336-1.8984-5.4336-3.7812-7.5625-5.7266-5.3594-4.8828-8.9102-10.809-9.9922-16.684-0.046876-0.24219-0.19141-0.45703-0.40625-0.59766-0.23047-0.15625-0.52344-0.21094-0.80859-0.15234-0.48828 0.11719-0.99609 0.25-1.4453 0.39844-0.97656 0.33984-1.7344 0.91016-2.1328 1.6016-0.375 0.64453-0.46875 1.4492-0.53906 2.2891-0.26172 3.0391-0.10156 6.0742 0.47266 9.0156 0.054688 0.28906-0.054687 0.58594-0.28516 0.76562-0.23047 0.17969-0.54297 0.21484-0.8125 0.09375-5.793-2.707-10.941-6.9336-15.301-12.555-0.23047-0.29688-0.55859-0.26562-0.65234-0.24219-0.11719 0.019531-0.39453 0.10547-0.5 0.43359-0.085937 0.29297-0.17578 0.62109-0.25 0.93359 0 0-0.078125 0.4375-0.12109 1.0898-0.039063 0.54688-0.066407 1.3711 0.042968 2.2461 0.32031 2.4492 2.8125 6.4688 7.6484 9.9141 0.35156 0.25 0.43359 0.73828 0.18359 1.0898s-0.73828 0.43359-1.0898 0.18359c-4.5898-3.2656-7.8438-7.5781-8.2891-10.988-0.050781-0.41406-0.070312-0.80469-0.082031-1.1758-0.90234 0.56641-1.8867 1.4336-2.3203 2.7109-0.67188 1.9688 0.28125 3.8398 1.6992 6.2656 1.8164 3.1016 4.5859 5.7891 8.0195 7.7734 0.375 0.21484 0.5 0.69531 0.28516 1.0664-0.14453 0.25-0.40625 0.39062-0.67578 0.39062-0.13281 0-0.26562-0.03125-0.39062-0.10547-3.6641-2.1211-6.6328-5.0039-8.5859-8.3359-0.48438-0.82422-0.98828-1.6914-1.3867-2.5977-0.51172 2.6172 0.21875 5.5898 1.4102 7.75 2.3047 4.1328 6.4648 7.5781 12.371 10.242z"/>
  <path d="m67.605 69.805c-5.7422 2.2969-11.145 5.4258-16.359 8.8008 2.2773 1.5117 4.5547 3.0703 6.7656 4.5938 6.3828 4.3984 12.984 8.9453 19.992 12.414 3.8516 1.8984 8.6992 3.5664 12.023-0.41016 0.87109-1.0547 1.5117-2.4297 1.9023-4.0859 1.2188-5.0234 0.82031-10.469-1.1211-15.344-0.35156-0.89063-1.082-1.5625-2-1.8398-5.7383-1.7305-11.246-3.7148-16.387-5.8945-1.6133 0.55469-3.2344 1.1289-4.8125 1.7656z"/>
 </g>
</svg>
