<?xml version="1.0" encoding="UTF-8"?>
<svg width="100pt" height="100pt" version="1.1" viewBox="0 0 100 100" xmlns="http://www.w3.org/2000/svg">
 <g fill="#9b9b9b">
  <path d="m50 13c-20.434 0-37 16.566-37 37s16.566 37 37 37 37-16.566 37-37-16.566-37-37-37zm0 71c-18.746 0-34-15.254-34-34s15.254-34 34-34 34 15.254 34 34-15.254 34-34 34z"/>
  <path d="m61 40.988c0-6.0742-4.9258-11-11-11s-11 4.9258-11 11c0 4.4766 2.6758 8.3164 6.5117 10.035l-3.5117 18.965h16l-3.5117-18.965c3.8359-1.7148 6.5117-5.5586 6.5117-10.035z"/>
 </g>
</svg>
