<?xml version="1.0" encoding="UTF-8"?>
<svg width="100pt" height="100pt" version="1.1" viewBox="0 0 100 100" xmlns="http://www.w3.org/2000/svg">
 <g fill="#9b9b9b">
  <path d="m69.164 32.344h-6.8594v-24.922h-44.602c5.7734 3.3672 10.391 6.3047 15.234 8.7891 3.0781 1.5859 4.1016 3.7109 4.0742 7.1094-0.14062 15.41-0.0625 30.824-0.0625 46.234v6.0156h25.141v-19.223h7.0508c0 7.75 0.10938 15.332-0.054687 22.91-0.066407 3.0508-2.3594 3.7734-5.0156 3.7578-7.2266-0.039063-14.453-0.015625-21.691-0.019531h-5.4492c0 4.3203 0.11719 8.3008-0.03125 12.27-0.17188 4.6016-2.4141 5.9023-6.375 3.6641-9.2656-5.2422-18.535-10.492-27.633-16.027-1.4141-0.85938-2.7344-3.2344-2.7461-4.9141-0.16797-24.391-0.082031-48.785-0.14453-73.176 0-3.4922 1.5625-4.8125 4.8359-4.8125 19.773 0.035156 39.547 0.042969 59.32 0.015625 2.6484 0 4.9219 0.6875 4.9609 3.7891 0.125 9.3906 0.046874 18.777 0.046874 28.539z"/>
  <path d="m76.414 49.297c-6.0312 0-11.453 0.039063-16.875-0.015625-4.5312-0.046875-7.125-1.9531-6.7812-5.1406 0.42578-3.9648 3.2148-4.9219 6.6797-4.8828 5.4375 0.054688 10.871 0.015626 16.969 0.015626 0-2.7188-0.078125-5.1953 0.019531-7.6602 0.14844-3.6289 1.5156-4.5234 4.2969-2.5625 6.0312 4.2656 11.938 8.7188 17.867 13.133 1.8672 1.3906 1.9062 2.9141 0 4.3203-6.0664 4.4766-12.109 9-18.254 13.355-2.5391 1.8047-3.8125 0.46484-3.9062-2.3086-0.078126-2.5195-0.015626-5.0469-0.015626-8.2539z"/>
 </g>
</svg>
