<?xml version="1.0" encoding="UTF-8"?>
<svg width="100pt" height="100pt" version="1.1" viewBox="0 0 100 100" xmlns="http://www.w3.org/2000/svg">
 <g fill="#9b9b9b">
  <path d="m19.621 12.863h9.668c2.3672 0 4.2852-1.918 4.2852-4.2852s-1.918-4.2852-4.2852-4.2852h-9.668c-8.457 0-15.336 6.875-15.336 15.332v60.754c0 8.4531 6.8789 15.332 15.332 15.332h9.668c2.3672 0 4.2852-1.918 4.2852-4.2852 0-2.3672-1.918-4.2852-4.2852-4.2852l-9.6641-0.003906c-3.7305 0-6.7617-3.0312-6.7617-6.7617l-0.003906-60.75c0-3.7305 3.0352-6.7617 6.7656-6.7617z"/>
  <path d="m64.457 16.973c-1.2266-1.2266-3.0664-1.5977-4.6719-0.92969-1.5977 0.66406-2.6406 2.2266-2.6406 3.9609v12.852h-34.285c-2.3672 0-4.2852 1.918-4.2852 4.2852l-0.003907 24.289c0 1.1367 0.45313 2.2266 1.2539 3.0312 0.80469 0.80078 1.8945 1.2539 3.0312 1.2539h34.285v14.289c0 3.8398 4.6445 5.707 7.3164 3.0312l30-30c1.6758-1.6758 1.6758-4.3867 0-6.0586zm1.2578 52.684v-8.2266c0-2.3672-1.918-4.2852-4.2852-4.2852h-34.285v-15.715h34.285c2.3672 0 4.2852-1.918 4.2852-4.2852v-6.793l19.652 19.652z"/>
 </g>
</svg>
