<?xml version="1.0" encoding="UTF-8"?>
<svg width="100pt" height="100pt" version="1.1" viewBox="0 0 100 100" xmlns="http://www.w3.org/2000/svg">
 <g fill="#9b9b9b">
  <path d="m70.801 44.699h-15.5v-15.5c0-2.8984-2.3984-5.3008-5.3008-5.3008-2.8984 0-5.3008 2.3984-5.3008 5.3008v15.5h-15.5c-2.8984 0-5.3008 2.3984-5.3008 5.3008 0 1.5 0.60156 2.8008 1.5 3.6992 1 1 2.3008 1.5 3.6992 1.5h15.5v15.5c0 1.5 0.60156 2.8008 1.5 3.6992 1 1 2.3008 1.5 3.6992 1.5 2.8984 0 5.3008-2.3984 5.3008-5.3008l0.003906-15.297h15.5c2.8984 0 5.3008-2.3984 5.3008-5.3008 0.097656-2.8984-2.2031-5.3008-5.1016-5.3008z"/>
  <path d="m50 2.5c-26.199 0-47.5 21.301-47.5 47.5s21.301 47.5 47.5 47.5 47.5-21.301 47.5-47.5-21.301-47.5-47.5-47.5zm0 84.398c-20.398 0-36.898-16.5-36.898-36.898s16.5-36.898 36.898-36.898 36.898 16.5 36.898 36.898-16.5 36.898-36.898 36.898z"/>
 </g>
</svg>
