<?xml version="1.0" encoding="UTF-8"?>
<svg width="100pt" height="100pt" version="1.1" viewBox="0 0 100 100" xmlns="http://www.w3.org/2000/svg">
 <path d="m12.312 0.40625h67.66l20.027 19.484v67.387c0 6.7656-5.5469 12.312-12.312 12.312h-75.371c-6.7656 0-12.312-5.5469-12.312-12.312v-74.559c0-6.7656 5.5469-12.312 12.312-12.312zm38.023 7.4414c-4.1953 0-7.3086 3.1133-7.3086 7.3086v27.605h-13.668l20.973 29.094 20.973-29.094h-13.801v-27.605c0-4.1953-3.1133-7.3086-7.1719-7.3086zm-32.07 78.621c-1.7578 0-3.2461-1.4883-3.2461-3.3828v-19.352c0-2.3008 1.7578-4.0586 3.9258-4.0586 2.3008 0 4.0586 1.7578 4.0586 4.0586 0 5.0078 0.13672 10.012 0.13672 15.02h53.18c0.13672-5.0078 0.13672-10.012 0.13672-15.02 0-2.3008 1.8945-4.0586 4.0586-4.0586s4.0586 1.7578 4.0586 4.0586v19.352c0 1.8945-1.625 3.3828-3.3828 3.3828z" fill="#9b9b9b" fill-rule="evenodd"/>
</svg>
