<?xml version="1.0" encoding="UTF-8"?>
<svg width="100pt" height="100pt" version="1.1" viewBox="0 0 100 100" xmlns="http://www.w3.org/2000/svg">
 <g fill="#9b9b9b">
  <path d="m74 66c0 2.1211-0.84375 4.1562-2.3438 5.6562s-3.5352 2.3438-5.6562 2.3438h-32c-4.418 0-8-3.582-8-8v-4h-8v4c0 4.2422 1.6875 8.3125 4.6875 11.312s7.0703 4.6875 11.312 4.6875h32c4.2422 0 8.3125-1.6875 11.312-4.6875s4.6875-7.0703 4.6875-11.312v-4h-8z"/>
  <path d="m46 18v34.34l-8-8-5.6602 5.6602 14.832 14.828c0.75 0.75391 1.7656 1.1758 2.8281 1.1758s2.0781-0.42188 2.8281-1.1758l14.832-14.828-5.6602-5.6602-8 8v-34.34z"/>
 </g>
</svg>
