<?xml version="1.0" encoding="UTF-8"?>
<svg width="100pt" height="100pt" version="1.1" viewBox="0 0 100 100" xmlns="http://www.w3.org/2000/svg">
 <g fill="#9b9b9b">
  <path d="m89.191 80-17.551-8.75c-0.5625-0.27734-1.2188-0.27734-1.7812 0-4.3086-4.5312-5.2305-12.398-5.8594-17.859-0.050781-0.53125-0.12109-1-0.17188-1.5117 0.007813-0.03125 0.007813-0.066406 0-0.097656-0.23047-1.457-0.77344-2.8516-1.5898-4.082-0.53516-0.78906-0.87891-1.6914-1-2.6406l-3.1484-20.91c-0.3125-2.4844-2.375-4.3789-4.8789-4.4766h-0.15234c-1.0977-0.003906-2.1719 0.34766-3.0586 1-0.93359-0.68359-2.0664-1.0352-3.2188-1-2.5312 0.10938-4.6094 2.043-4.9023 4.5586l-3.0586 20.77c-0.12109 0.95312-0.46484 1.8633-1 2.6602-0.80859 1.2344-1.3516 2.625-1.5898 4.0781-0.007813 0.035157-0.007813 0.070313 0 0.10156-0.050781 0.48047-0.12109 1-0.17188 1.5117-0.62891 5.4609-1.5586 13.328-5.8594 17.871v-0.003906c-0.55859-0.27734-1.2188-0.27734-1.7773 0l-17.613 8.7812c-0.6875 0.33984-1.125 1.043-1.1172 1.8086v13.672c0 0.53125 0.21094 1.0391 0.58594 1.4141s0.88281 0.58594 1.4141 0.58594h27.102-0.003907c0.71875 0.003906 1.3828-0.37891 1.7422-1l5.0703-8.7812c0.39844-0.69141 0.34766-1.5586-0.13281-2.1992 0.13672-0.15234 0.28516-0.29688 0.44141-0.42969 1.5273-0.30469 2.9414-1.0195 4.0898-2.0703 1.1328 1.0625 2.5391 1.793 4.0586 2.1094 0.15625 0.13281 0.30469 0.27734 0.44141 0.42969-0.48047 0.64063-0.53125 1.5078-0.12891 2.1992l5.0703 8.7812c0.35547 0.62109 1.0195 1.0039 1.7383 1h27.109c0.53125 0 1.0391-0.21094 1.4141-0.58594s0.58594-0.88281 0.58594-1.4141v-13.68c0.023438-0.77344-0.40625-1.4922-1.0977-1.8398zm-41.191-1c0 0.69922-1.8281 2-2.5391 2.0781-1.6992 0-3.8281 2.4609-4.8906 4.4414-2.2539-0.027343-4.4297-0.82812-6.1602-2.2695-2.2852-1.7109-3.6289-4.3984-3.6289-7.25 7.2188-5.1016 8.4297-15.301 9.2188-22.148 0.058594-0.5 0.12109-1 0.17188-1.4297 0.13672-0.93359 0.47656-1.8281 1-2.6133 0.83203-1.25 1.375-2.6719 1.5898-4.1602l3.0586-20.762c0.10156-0.53125 0.35938-1.1719 1-1.1914v0.003907c0.47266-0.003907 0.90234 0.28125 1.0781 0.72266zm11.461 6.5195c-1-2-3.1797-4.4414-4.8086-4.4414-0.80078-0.078125-2.6523-1.3672-2.6523-2.0781v-54.578c0.17578-0.44141 0.60547-0.72656 1.0781-0.72266 0.67188 0 0.92969 0.66016 1 1.1211l3.1211 20.852c0.21094 1.4805 0.75 2.8945 1.582 4.1367 0.51562 0.78906 0.85547 1.6797 1 2.6133 0.050781 0.44922 0.10156 0.94141 0.16016 1.4297 0.80078 6.8516 2 17.051 9.2188 22.16 0 2.8438-1.332 5.5273-3.6016 7.25-1.7227 1.4297-3.8789 2.2305-6.1172 2.2695z"/>
  <path d="m50 2.5c-1.3047 0-2.3594 1.0547-2.3594 2.3594v4.6523c0 1.3008 1.0547 2.3594 2.3594 2.3594s2.3594-1.0586 2.3594-2.3594v-4.6523c0-1.3047-1.0547-2.3594-2.3594-2.3594z"/>
  <path d="m39.262 9.3906c-0.93359-0.89062-2.3984-0.89062-3.332 0-0.44141 0.44141-0.69141 1.0391-0.69141 1.6641s0.25 1.2227 0.69141 1.6641l3.1016 3.1016c0.44141 0.44141 1.043 0.69141 1.668 0.69141 0.94531-0.007813 1.7969-0.57812 2.1562-1.4492 0.36328-0.875 0.16797-1.8789-0.49609-2.5508z"/>
  <path d="m64.07 9.3906c-0.93359-0.89062-2.3984-0.89062-3.332 0l-3.1094 3.1016v-0.003907c-0.91797 0.93359-0.91016 2.4336 0.019532 3.3516 0.93359 0.91797 2.4336 0.91016 3.3516-0.019532l3.1016-3.1016c0.4375-0.44531 0.67969-1.0469 0.67578-1.6719-0.007813-0.62109-0.26172-1.2188-0.70703-1.6562z"/>
 </g>
</svg>
