<?xml version="1.0" encoding="UTF-8"?>
<svg width="100pt" height="100pt" version="1.1" viewBox="0 0 100 100" xmlns="http://www.w3.org/2000/svg">
 <g fill="#ffffff">
  <path d="m31.109 57.23c0.23438-0.14453 0.50391-0.22266 0.78125-0.21875 0.51953-0.003907 1.0039 0.26562 1.2812 0.70703l1.1914 2 3.6016-2.1992 2.8398-5.8086h-0.003907c1.5508-3.168 3.9805-5.8242 7-7.6523l12.191-7.4492h-0.003907c0.92969-0.57031 2.043-0.74609 3.1016-0.48828 0.71484 0.17188 1.3711 0.53906 1.8906 1.0586l8.8906-2.8906c1.1875-0.42187 1.8242-1.7148 1.4336-2.9141-0.39063-1.1992-1.6641-1.8711-2.875-1.5156l-22.59 7.2891c-0.19141 0.082031-0.41016 0.078124-0.60156-0.007813-0.1875-0.085937-0.33203-0.25-0.39844-0.44531-0.066406-0.19922-0.046875-0.41797 0.054687-0.59766 0.10156-0.18359 0.27344-0.31641 0.47656-0.36719l8.2578-2.7305c0.71484-0.16016 1.3281-0.61719 1.6875-1.2539 0.35938-0.63672 0.42969-1.3984 0.19922-2.0898-0.23047-0.69531-0.74609-1.2578-1.4141-1.5547-0.67187-0.29297-1.4336-0.28906-2.1016 0.007813l-13.57 4.4219c-3.0703 0.99219-5.793 2.8516-7.8398 5.3477l-4.25 5.1719c-0.089844 0.10938-0.20703 0.1875-0.33984 0.23047l-4.2305 1.3789 4.3008 13.199z"/>
  <path d="m74.141 35.711-8.3203 2.7109c0.30469 0.68359 0.41016 1.4453 0.30859 2.1875z"/>
  <path d="m20.34 69.051-1.5508-2.5312c-0.20703-0.33984-0.26953-0.75-0.17969-1.1406 0.09375-0.38672 0.33984-0.71484 0.67969-0.91797l9.4688-5.8008-5.5781-17.129-13.18 4.2891 7.8281 24.051z"/>
  <path d="m66.52 62.68 13.309-8.1406 8.2695-5.0508h0.003906c0.82031-0.50781 1.2539-1.457 1.1055-2.4141-0.15234-0.95312-0.85938-1.7227-1.7969-1.9531-0.61719-0.15234-1.2695-0.046875-1.8086 0.28906l-19.383 11.852c-0.33984 0.14062-0.73438 0.015625-0.92578-0.29688-0.19531-0.31641-0.13281-0.72266 0.14844-0.96484l21.289-13c0.59375-0.34375 1.0195-0.91406 1.1875-1.5781 0.16797-0.66797 0.0625-1.3711-0.29688-1.957-0.35547-0.58203-0.93359-1-1.6016-1.1523-0.67188-0.15625-1.3711-0.03125-1.9492 0.33594l-3.7891 2.3203-18.172 11.031c-0.35156 0.19531-0.79688 0.078125-1.0039-0.26562-0.21094-0.34375-0.11328-0.79297 0.22266-1.0156l18.16-11.07c0.51172-0.32031 0.87109-0.83203 1-1.418 0.15234-0.60156 0.050781-1.2383-0.27734-1.7617-0.32422-0.52734-0.84375-0.90625-1.4453-1.0508s-1.2383-0.042969-1.7656 0.28125l-12.738 7.8203-7.4102 4.5312c-0.16797 0.11328-0.375 0.15234-0.57031 0.11328-0.19922-0.035156-0.375-0.15234-0.48438-0.32031-0.23828-0.34766-0.14453-0.82031 0.20312-1.0547l7.4297-4.5508c1.1992-0.75781 1.5703-2.3359 0.83203-3.5469-0.75-1.2188-2.3438-1.5977-3.5625-0.85156l-12.199 7.4492c-2.7539 1.6758-4.9648 4.1055-6.3789 7l-2.9297 6c-0.066406 0.13281-0.16406 0.23828-0.29297 0.3125l-3.75 2.3984 9.4688 15.488 3.7891-2.3203 0.003906 0.003906c0.16016-0.14062 0.37891-0.20312 0.58984-0.17188 4.3945 0.90234 8.9688 0.097656 12.789-2.25l20.789-12.75c0.42578-0.26172 0.73438-0.68359 0.85156-1.1719 0.12109-0.48438 0.039062-1-0.21875-1.4297-0.54297-0.88672-1.7031-1.168-2.5898-0.62891l-13.32 8.2305c-0.35156 0.19531-0.79688 0.078125-1.0078-0.26562-0.21094-0.34375-0.10938-0.79297 0.22656-1.0156z"/>
  <path d="m20.074 65.734 11.824-7.2305 13.195 21.574-11.824 7.2305z"/>
 </g>
</svg>
