<?xml version="1.0" encoding="UTF-8"?>
<svg width="100pt" height="100pt" version="1.1" viewBox="0 0 100 100" xmlns="http://www.w3.org/2000/svg">
 <g fill="#9b9b9b">
  <path d="m50 41.699-2-2.0977c-4.1992-4.1992-11.398-3.3984-14.398 2.3984-1.8008 3.5-0.80078 7.6992 2 10.5l13.301 13.301c0.60156 0.60156 1.6992 0.60156 2.3008 0l13.602-13.5c4.1992-4.1992 3.3984-11.398-2.3984-14.398-3.5-1.8008-7.6992-0.80078-10.5 2z"/>
  <path d="m30.301 13.898c-0.30078 1.6992-0.69922 3.8984-1.1016 5.8984h0.39844c1.3008 0 2.5 0.39844 3.6992 1.1016 0.60156 0.39844 1.1016 0.80078 1.6016 1.3008l19.602-0.19922c-0.19922-0.69922-0.30078-1.3984-0.30078-2.1016v-8.8984c0-1.1992 0.19922-2.3008 0.5-3.3008l-26.801-0.30078c1.8008 1.5 2.8008 3.9023 2.4023 6.5z"/>
  <path d="m61.801 24.301c3 2.6992 10.102 7 10.102 7 1 0.69922 2.5 0.39844 3.1992-0.69922 0.60156-1 0.30078-2.1016-0.69922-3.1016s-3.1016-2.6992-3.1016-2.6992c-0.89844-0.89844-0.30078-1.6992 0.60156-1.6992 1.6992 0.10156 2.6992 0.19922 4.6016 0.39844 1.8984 0.19922 10.602 1.8008 10.602 1.8008 1.1016 0.19922 2.1016-0.5 2.3008-1.6016 0.19922-1.1016-0.5-2.1016-1.6016-2.3008l-10.805-1.7969c-0.30078-0.10156-0.5-0.30078-0.5-0.60156v-0.19922c0-0.39844 0.30078-0.69922 0.69922-0.69922l13 0.80078c1.1016 0.10156 2.1016-0.80078 2.1016-1.8984 0-1.1016-0.80078-2.1016-1.8984-2.1016l-13.602-0.89844c-0.30078 0-0.60156-0.30078-0.60156-0.60156 0-0.30078 0.19922-0.60156 0.60156-0.69922l11.699-0.5c1.1016-0.10156 2-1 1.8984-2.1016 0-1.1016-1-2-2.1016-1.8984l-11.598 0.69531c-0.30078 0-0.60156-0.30078-0.60156-0.60156s0.19922-0.60156 0.5-0.60156l9-1.1016c1.1016-0.10156 1.8984-1.1016 1.8008-2.1992-0.10156-1.1016-1.1016-1.8984-2.1992-1.8008 0 0-12.398 1.6016-17 2.1992-4.5 0.60156-9 1.6992-9 6.1992v8.8984c-0.097657 1.6094 1.3008 3.2109 2.6016 4.4102z"/>
  <path d="m86.102 30.301c-1.6992-0.30078-3.8984-0.69922-5.8984-1 0.10156 1.5-0.39844 2.8984-1 4-0.39844 0.60156-0.80078 1.1016-1.3984 1.6016l0.19531 19.598c0.69922-0.19922 1.3984-0.30078 2.1016-0.30078h8.8984c1.1992 0 2.3008 0.19922 3.3008 0.5l0.19922-26.801c-1.3008 1.5-3.1992 2.3984-5.3008 2.3984-0.30078 0.10156-0.69922 0.003906-1.0977 0.003906z"/>
  <path d="m95.301 68.102c-0.60156-4.5-1.6992-9-6.1992-9h-8.8984c-1.6992 0-3.1992 1.3984-4.3984 2.6992-2.6992 3-7 10.102-7 10.102-0.69922 1-0.39844 2.5 0.69922 3.1992 1 0.60156 2.1016 0.30078 3.1016-0.69922s2.6992-3.1016 2.6992-3.1016c0.89844-0.89844 1.6992-0.30078 1.6992 0.60156-0.10156 1.6992-0.19922 2.6992-0.39844 4.6016-0.50391 1.7969-2.1055 10.496-2.1055 10.496-0.19922 1.1016 0.5 2.1016 1.6016 2.3008 1.1016 0.19922 2.1016-0.5 2.3008-1.6016l1.9961-10.699c0-0.30078 0.30078-0.5 0.60156-0.5h0.19922c0.39844 0 0.69922 0.30078 0.60156 0.69922l-0.80078 13c-0.10156 1.1016 0.80078 2.1016 1.8984 2.1016 1.1016 0 2.1016-0.80078 2.1016-1.8984l0.89844-13.602c0-0.30078 0.30078-0.60156 0.60156-0.60156s0.60156 0.30078 0.69922 0.60156l0.5 11.699c0 1.1016 1 2 2.1016 1.8984 1.1016-0.10156 2-1 1.8984-2.1016l-0.5-11.699c0-0.30078 0.30078-0.60156 0.60156-0.60156s0.60156 0.19922 0.60156 0.5l1.1016 9c0.10156 1.1016 1.1016 1.8984 2.1992 1.8008 1.1016-0.10156 1.8984-1.1016 1.8008-2.1992-0.003906 0.003906-1.6055-12.398-2.2031-16.996z"/>
  <path d="m13.898 69.699c1.6992 0.30078 3.8984 0.69922 5.8984 1.1016-0.10156-1.5 0.39844-2.8984 1-4.1016 0.39844-0.60156 0.80078-1.1016 1.3984-1.6016l-0.19531-19.598c-0.69922 0.19922-1.3984 0.30078-2.1016 0.30078h-8.8984c-1.1992 0-2.3008-0.19922-3.3008-0.5l-0.30078 26.801c1.3008-1.5 3.1992-2.5 5.3008-2.5 0.30078 0 0.80078 0.097657 1.1992 0.097657z"/>
  <path d="m19.898 40.898c1.6992 0 3.1992-1.3984 4.3984-2.6992 2.6992-3 7-10.102 7-10.102 0.69922-1 0.39844-2.5-0.69922-3.1992-1-0.60156-2.1016-0.30078-3.1016 0.69922s-2.6992 3.1016-2.6992 3.1016c-0.89844 0.89844-1.6992 0.30078-1.6992-0.60156 0.10156-1.6992 0.19922-2.6992 0.39844-4.6016 0.19922-1.8984 1.8008-10.602 1.8008-10.602 0.19922-1.1016-0.5-2.1016-1.6016-2.3008-1.1016-0.19922-2.1016 0.5-2.3008 1.6016l-1.793 10.805c0 0.30078-0.30078 0.5-0.60156 0.5h-0.19922c-0.39844 0-0.69922-0.30078-0.60156-0.69922l0.80078-13c0.10156-1.1016-0.80078-2.1016-1.8984-2.1016-1.1016 0-2.1016 0.80078-2.1016 1.8984l-0.89844 13.602c0 0.30078-0.30078 0.60156-0.60156 0.60156s-0.60156-0.19922-0.69922-0.60156l-0.5-11.699c0-1.1016-1-2-2.1016-1.8984-1.1016 0-2 1-1.8984 2.1016l0.5 11.699c0 0.30078-0.30078 0.60156-0.60156 0.60156s-0.60156-0.19922-0.60156-0.60156l-1.1016-9c-0.10156-1.1016-1.1016-1.8984-2.1992-1.8008-1.1016 0.10156-1.8984 1.1016-1.8008 2.1992 0 0 1.6016 12.398 2.1992 17 0.60156 4.5 1.6992 9 6.1992 9 3.5039 0.097657 5.5039 0.097657 9.0039 0.097657z"/>
  <path d="m69.699 86.102c0.30078-1.6992 0.69922-3.8984 1.1016-5.8984h-0.39844c-1.3008 0-2.5-0.39844-3.6992-1.1016-0.60156-0.39844-1.1016-0.80078-1.6016-1.3984l-19.602 0.29688c0.19922 0.69922 0.30078 1.3984 0.30078 2.1016v8.8984c0 1.1992-0.19922 2.3008-0.5 3.3008l26.801 0.30078c-0.5-0.39844-0.89844-0.80078-1.1992-1.3008-1.1016-1.5-1.5039-3.3008-1.2031-5.1992z"/>
  <path d="m38.199 75.699c-3-2.6992-10.102-7-10.102-7-1-0.69922-2.5-0.39844-3.1992 0.69922-0.60156 1-0.30078 2.1016 0.69922 3.1016s3.1016 2.6992 3.1016 2.6992c0.89844 0.89844 0.30078 1.6992-0.60156 1.6992-1.6992-0.10156-2.6992-0.19922-4.6016-0.39844-1.7969-0.39844-10.496-2-10.496-2-1.1016-0.19922-2.1016 0.5-2.3008 1.6016-0.19922 1.1016 0.5 2.1016 1.6016 2.3008l10.699 1.9961c0.30078 0.10156 0.5 0.30078 0.5 0.60156v0.19922c0 0.39844-0.30078 0.69922-0.69922 0.60156l-13-0.80078c-1.1016-0.10156-2.1016 0.80078-2.1016 1.8984 0 1.1016 0.80078 2.1016 1.8984 2.1016l13.602 0.89844c0.30078 0 0.60156 0.30078 0.60156 0.60156s-0.19922 0.60156-0.60156 0.69922l-11.699 0.5c-1.1016 0-2 1-1.8984 2.1016 0 1.1016 1 2 2.1016 1.8984l11.699-0.5c0.30078 0 0.60156 0.30078 0.60156 0.60156s-0.19922 0.60156-0.5 0.60156l-9 1.1016c-1.1016 0.10156-1.8984 1.1016-1.8008 2.1992 0.10156 1.1016 1.1016 1.8984 2.1992 1.8008 0 0 12.398-1.6016 17-2.1992 4.5-0.60156 9-1.6992 9-6.1992v-8.8984c-0.003906-1.707-1.4023-3.3086-2.7031-4.5078z"/>
 </g>
</svg>
