<?xml version="1.0" encoding="UTF-8"?>
<svg width="100pt" height="100pt" version="1.1" viewBox="0 0 100 100" xmlns="http://www.w3.org/2000/svg">
 <path d="m75.602 11.699h-19.102c-11.102 0-20.398 7.8008-22.699 18.199h-9.1016c-13 0-23.602 10.602-23.602 23.602 0 10.398 6.8008 19.301 16.102 22.398v11.301c0 1 1.3008 1.6016 2 0.80078l10.898-10.898h16c11.398 0 21-8.1016 23.102-18.898h0.60156l9 9c0.60156 0.60156 1.3984 1 2.3008 0.89844 0.39844 0 0.80078-0.10156 1.1992-0.19922 1.1992-0.5 2-1.6992 2-3v-8.5c8.6992-3.6016 14.398-12 14.398-21.5 0.19922-12.801-10.301-23.203-23.098-23.203zm-38.402 52.199h-14.5c-1.1992 0-2.1016-1-2.1016-2.1016 0-1.1992 1-2.1016 2.1016-2.1016h14.5c1.1992 0 2.1016 1 2.1016 2.1016s-0.90234 2.1016-2.1016 2.1016zm14.199-10.398c0 1.1992-1 2.1016-2.1016 2.1016h-26.598c-1.1992 0-2.1016-1-2.1016-2.1016 0-1.1992 1-2.1016 2.1016-2.1016h26.5c1.1992 0 2.1992 0.90234 2.1992 2.1016zm0-8.1992c0 1.1992-1 2.1016-2.1016 2.1016l-26.598-0.003906c-1.1992 0-2.1016-1-2.1016-2.1016 0-1.1992 1-2.1016 2.1016-2.1016h26.5c1.1992-0.09375 2.1992 0.90625 2.1992 2.1055zm30.203 7.5-1.5 0.5v8.8008l-8.3984-8.3984h-2v-0.30078c0-13-10.602-23.602-23.602-23.602h-7.8008c2.1992-8 9.5-13.801 18.199-13.801h19.102c10.398 0 18.898 8.5 18.898 18.898 0 8.2031-5.1992 15.402-12.898 17.902z" fill="#9b9b9b"/>
</svg>
