<?xml version="1.0" encoding="UTF-8"?>
<svg width="100pt" height="100pt" version="1.1" viewBox="0 0 100 100" xmlns="http://www.w3.org/2000/svg">
 <path d="m50 2.5c-26.199 0-47.5 21.301-47.5 47.5s21.301 47.5 47.5 47.5 47.5-21.301 47.5-47.5-21.301-47.5-47.5-47.5zm0 27.199c8.1992 0 14.898 6.6992 14.898 14.898 0 8.1992-6.6992 14.898-14.898 14.898s-14.898-6.6992-14.898-14.898c0-8.1992 6.6992-14.898 14.898-14.898zm-26 49.102v-2.1992c0-6.3008 5.1016-11.5 11.5-11.5h29c6.3008 0 11.5 5.1016 11.5 11.5v2.1992c-6.8984 6.1992-16 10-26 10s-19.102-3.8008-26-10z" fill="#9b9b9b"/>
</svg>
