<?xml version="1.0" encoding="UTF-8"?>
<svg width="100pt" height="100pt" version="1.1" viewBox="0 0 100 100" xmlns="http://www.w3.org/2000/svg">
 <g fill="#9b9b9b">
  <path d="m96.871 44.031-46.871-32.805-46.871 32.805c-0.66797 0.46875-0.82812 1.3984-0.35938 2.0625l3.5703 5.1211c0.23047 0.31641 0.56641 0.53516 0.96094 0.60156 0.38281 0.078125 0.78516-0.011718 1.1016-0.24219l40.656-28.469c0.56641-0.39453 1.3086-0.39453 1.8789 0l40.656 28.469c0.32812 0.23047 0.72266 0.31641 1.1016 0.24219 0.39453-0.066406 0.73047-0.28516 0.96094-0.60156l3.5703-5.1211c0.47656-0.66406 0.3125-1.5938-0.35547-2.0625z"/>
  <path d="m20.043 47.43v37.523c0 2.1094 1.7148 3.8203 3.8203 3.8203h10.301c2.1094 0 3.8203-1.7148 3.8203-3.8203l0.003906-17.934c0-3.9219 3.1875-7.0977 7.0977-7.0977h9.8281c3.9102 0 7.0977 3.1797 7.0977 7.0977v17.934c0 2.1094 1.7148 3.8203 3.8203 3.8203h10.297c2.1094 0 3.8203-1.7148 3.8203-3.8203l0.007812-37.523-29.957-20.98z"/>
 </g>
</svg>
