<?xml version="1.0" encoding="UTF-8"?>
<svg width="100pt" height="100pt" version="1.1" viewBox="0 0 100 100" xmlns="http://www.w3.org/2000/svg">
 <g fill="#9b9b9b">
  <path d="m28 82h10v-8h-10c-1.1055 0-2-0.89453-2-2v-44c0-1.1055 0.89453-2 2-2h10v-8h-10c-5.5234 0-10 4.4766-10 10v44c0 2.6523 1.0547 5.1953 2.9297 7.0703s4.418 2.9297 7.0703 2.9297z"/>
  <path d="m66 32.34-5.6602 5.6602 8 8h-34.34v8h34.34l-8 8 5.6602 5.6602 14.828-14.832c0.75391-0.75 1.1758-1.7656 1.1758-2.8281s-0.42188-2.0781-1.1758-2.8281z"/>
 </g>
</svg>
