<?xml version="1.0" encoding="UTF-8"?>
<svg width="100pt" height="100pt" version="1.1" viewBox="0 0 100 100" xmlns="http://www.w3.org/2000/svg">
 <path d="m45 46h-8.5c-1.9336 0-3.5 1.5664-3.5 3.5s1.5664 3.5 3.5 3.5h8.5c0.55078 0 1 0.44922 1 1v8.5c0 1.9336 1.5664 3.5 3.5 3.5s3.5-1.5664 3.5-3.5v-8.5c0-0.55078 0.44922-1 1-1h8.5c1.9336 0 3.5-1.5664 3.5-3.5s-1.5664-3.5-3.5-3.5h-8.5c-0.55078 0-1-0.44922-1-1v-8.5c0-1.9336-1.5664-3.5-3.5-3.5s-3.5 1.5664-3.5 3.5v8.5c0 0.55078-0.44922 1-1 1z" fill="#9b9b9b" fillRule="evenodd"/>
</svg>
