<?xml version="1.0" encoding="UTF-8"?>
<svg width="100pt" height="100pt" version="1.1" viewBox="0 0 100 100" xmlns="http://www.w3.org/2000/svg">
 <g fill="#9b9b9b">
  <path d="m77.695 40.859-15.195-15.352c-1.0156-1.0742-2.4414-1.6602-3.9258-1.6602h-3.4961v11.328c0 1.1914-0.97656 2.168-2.168 2.168h-23.711c-1.1914 0-2.168-0.97656-2.168-2.168v-11.328h-0.80078c-3.0469 0-5.5273 2.4805-5.5273 5.5273v41.602c0 3.0469 2.4805 5.5273 5.5273 5.5273h47.539c3.0469 0 5.5273-2.4805 5.5273-5.5273v-26.23c0-1.4648-0.56641-2.8516-1.6016-3.8867zm-5.7617 24.922c0 1.4258-1.1328 2.5391-2.5391 2.5391h-39.082c-1.4062 0-2.5391-1.1328-2.5391-2.5391v-17.422c0-0.68359 0.54687-1.2305 1.2305-1.2305h40.391c1.4062 0 2.5391 1.1328 2.5391 2.5391z"/>
  <path d="m66.309 53.203h-32.891c-0.37109 0-0.70312 0.3125-0.70312 0.70312v1.0352c0 0.37109 0.3125 0.70312 0.70312 0.70312h32.891c0.39062 0 0.70312-0.3125 0.70312-0.70312v-1.0352c0-0.37109-0.3125-0.70312-0.70312-0.70312z"/>
  <path d="m66.309 60.664h-32.891c-0.37109 0-0.70312 0.3125-0.70312 0.70313v1.0352c0 0.37109 0.3125 0.70312 0.70312 0.70312h32.891c0.39062 0 0.70312-0.33203 0.70312-0.70312v-1.0352c0-0.37109-0.3125-0.70313-0.70312-0.70313z"/>
  <path d="m30.059 23.496h21.875v10.859h-21.875z"/>
  <path d="m50 98.828c-13.047 0-25.312-5.0781-34.531-14.297s-14.297-21.484-14.297-34.531 5.0781-25.312 14.297-34.531 21.484-14.297 34.531-14.297 25.312 5.0781 34.531 14.297 14.297 21.484 14.297 34.531-5.0781 25.312-14.297 34.531-21.484 14.297-34.531 14.297zm0-94.531c-25.195 0-45.703 20.508-45.703 45.703s20.508 45.703 45.703 45.703 45.703-20.508 45.703-45.703-20.508-45.703-45.703-45.703z"/>
 </g>
</svg>
